Relief-SingleLine-Ornament.ufo
<glyph name="period" format="2">
	<advance width="680"/>
	<unicode hex="002E"/>
	<outline>
		<contour>
			<point x="-40" y="508" type="move" smooth="yes"/>
			<point x="-40" y="486"/>
			<point x="-22" y="469"/>
			<point x="0" y="469" type="curve" smooth="yes"/>
			<point x="23" y="469"/>
			<point x="40" y="487"/>
			<point x="40" y="509" type="curve" smooth="yes"/>
			<point x="40" y="532"/>
			<point x="23" y="549"/>
			<point x="0" y="549" type="curve" smooth="yes"/>
			<point x="-22" y="549"/>
			<point x="-40" y="532"/>
			<point x="-40" y="509" type="curve"/>
		</contour>
		<contour>
			<point x="-1" y="40" type="move" smooth="yes"/>
			<point x="-23" y="40"/>
			<point x="-40" y="23"/>
			<point x="-40" y="0" type="curve" smooth="yes"/>
			<point x="-40" y="-22"/>
			<point x="-22" y="-40"/>
			<point x="0" y="-40" type="curve" smooth="yes"/>
			<point x="23" y="-40"/>
			<point x="39" y="-22"/>
			<point x="39" y="0" type="curve" smooth="yes"/>
			<point x="39" y="23"/>
			<point x="23" y="40"/>
			<point x="0" y="40" type="curve"/>
		</contour>
		<contour>
			<point x="169" y="40" type="move" smooth="yes"/>
			<point x="146" y="40"/>
			<point x="130" y="23"/>
			<point x="130" y="0" type="curve" smooth="yes"/>
			<point x="130" y="-22"/>
			<point x="147" y="-40"/>
			<point x="170" y="-40" type="curve" smooth="yes"/>
			<point x="192" y="-40"/>
			<point x="208" y="-22"/>
			<point x="208" y="0" type="curve" smooth="yes"/>
			<point x="208" y="23"/>
			<point x="192" y="40"/>
			<point x="170" y="40" type="curve"/>
		</contour>
		<contour>
			<point x="-40" y="170" type="move" smooth="yes"/>
			<point x="-40" y="147"/>
			<point x="-22" y="131"/>
			<point x="0" y="131" type="curve" smooth="yes"/>
			<point x="23" y="131"/>
			<point x="40" y="148"/>
			<point x="40" y="171" type="curve" smooth="yes"/>
			<point x="40" y="193"/>
			<point x="23" y="209"/>
			<point x="0" y="209" type="curve" smooth="yes"/>
			<point x="-22" y="209"/>
			<point x="-40" y="193"/>
			<point x="-40" y="171" type="curve"/>
		</contour>
		<contour>
			<point x="337" y="40" type="move" smooth="yes"/>
			<point x="314" y="40"/>
			<point x="297" y="23"/>
			<point x="297" y="0" type="curve" smooth="yes"/>
			<point x="297" y="-22"/>
			<point x="315" y="-40"/>
			<point x="338" y="-40" type="curve" smooth="yes"/>
			<point x="360" y="-40"/>
			<point x="377" y="-22"/>
			<point x="377" y="0" type="curve" smooth="yes"/>
			<point x="377" y="23"/>
			<point x="360" y="40"/>
			<point x="338" y="40" type="curve"/>
		</contour>
		<contour>
			<point x="-40" y="338" type="move" smooth="yes"/>
			<point x="-40" y="315"/>
			<point x="-22" y="298"/>
			<point x="0" y="298" type="curve" smooth="yes"/>
			<point x="23" y="298"/>
			<point x="40" y="316"/>
			<point x="40" y="339" type="curve" smooth="yes"/>
			<point x="40" y="361"/>
			<point x="23" y="378"/>
			<point x="0" y="378" type="curve" smooth="yes"/>
			<point x="-22" y="378"/>
			<point x="-40" y="361"/>
			<point x="-40" y="339" type="curve"/>
		</contour>
		<contour>
			<point x="507" y="40" type="move" smooth="yes"/>
			<point x="485" y="40"/>
			<point x="468" y="23"/>
			<point x="468" y="0" type="curve" smooth="yes"/>
			<point x="468" y="-22"/>
			<point x="486" y="-40"/>
			<point x="508" y="-40" type="curve" smooth="yes"/>
			<point x="531" y="-40"/>
			<point x="548" y="-22"/>
			<point x="548" y="0" type="curve" smooth="yes"/>
			<point x="548" y="23"/>
			<point x="531" y="40"/>
			<point x="508" y="40" type="curve"/>
		</contour>
		<contour>
			<point x="679" y="40" type="move" smooth="yes"/>
			<point x="656" y="40"/>
			<point x="640" y="23"/>
			<point x="640" y="0" type="curve" smooth="yes"/>
			<point x="640" y="-22"/>
			<point x="657" y="-40"/>
			<point x="680" y="-40" type="curve" smooth="yes"/>
			<point x="702" y="-40"/>
			<point x="718" y="-22"/>
			<point x="718" y="0" type="curve" smooth="yes"/>
			<point x="718" y="23"/>
			<point x="702" y="40"/>
			<point x="680" y="40" type="curve"/>
		</contour>
		<contour>
			<point x="-1" y="719" type="move" smooth="yes"/>
			<point x="-23" y="719"/>
			<point x="-40" y="702"/>
			<point x="-40" y="680" type="curve" smooth="yes"/>
			<point x="-40" y="657"/>
			<point x="-22" y="640"/>
			<point x="0" y="640" type="curve" smooth="yes"/>
			<point x="23" y="640"/>
			<point x="39" y="657"/>
			<point x="39" y="680" type="curve" smooth="yes"/>
			<point x="39" y="702"/>
			<point x="23" y="719"/>
			<point x="0" y="719" type="curve"/>
		</contour>
		<contour>
			<point x="169" y="719" type="move" smooth="yes"/>
			<point x="146" y="719"/>
			<point x="130" y="702"/>
			<point x="130" y="680" type="curve" smooth="yes"/>
			<point x="130" y="657"/>
			<point x="147" y="640"/>
			<point x="170" y="640" type="curve" smooth="yes"/>
			<point x="192" y="640"/>
			<point x="208" y="657"/>
			<point x="208" y="680" type="curve" smooth="yes"/>
			<point x="208" y="702"/>
			<point x="192" y="719"/>
			<point x="170" y="719" type="curve"/>
		</contour>
		<contour>
			<point x="640" y="170" type="move" smooth="yes"/>
			<point x="640" y="147"/>
			<point x="657" y="131"/>
			<point x="680" y="131" type="curve" smooth="yes"/>
			<point x="702" y="131"/>
			<point x="719" y="148"/>
			<point x="719" y="171" type="curve" smooth="yes"/>
			<point x="719" y="193"/>
			<point x="702" y="209"/>
			<point x="680" y="209" type="curve" smooth="yes"/>
			<point x="657" y="209"/>
			<point x="640" y="193"/>
			<point x="640" y="171" type="curve"/>
		</contour>
		<contour>
			<point x="337" y="719" type="move" smooth="yes"/>
			<point x="314" y="719"/>
			<point x="297" y="702"/>
			<point x="297" y="680" type="curve" smooth="yes"/>
			<point x="297" y="657"/>
			<point x="315" y="640"/>
			<point x="338" y="640" type="curve" smooth="yes"/>
			<point x="360" y="640"/>
			<point x="377" y="657"/>
			<point x="377" y="680" type="curve" smooth="yes"/>
			<point x="377" y="702"/>
			<point x="360" y="719"/>
			<point x="338" y="719" type="curve"/>
		</contour>
		<contour>
			<point x="640" y="338" type="move" smooth="yes"/>
			<point x="640" y="315"/>
			<point x="657" y="298"/>
			<point x="680" y="298" type="curve" smooth="yes"/>
			<point x="702" y="298"/>
			<point x="719" y="316"/>
			<point x="719" y="339" type="curve" smooth="yes"/>
			<point x="719" y="361"/>
			<point x="702" y="378"/>
			<point x="680" y="378" type="curve" smooth="yes"/>
			<point x="657" y="378"/>
			<point x="640" y="361"/>
			<point x="640" y="339" type="curve"/>
		</contour>
		<contour>
			<point x="507" y="719" type="move" smooth="yes"/>
			<point x="485" y="719"/>
			<point x="468" y="702"/>
			<point x="468" y="680" type="curve" smooth="yes"/>
			<point x="468" y="657"/>
			<point x="486" y="640"/>
			<point x="508" y="640" type="curve" smooth="yes"/>
			<point x="531" y="640"/>
			<point x="548" y="657"/>
			<point x="548" y="680" type="curve" smooth="yes"/>
			<point x="548" y="702"/>
			<point x="531" y="719"/>
			<point x="508" y="719" type="curve"/>
		</contour>
		<contour>
			<point x="640" y="508" type="move" smooth="yes"/>
			<point x="640" y="486"/>
			<point x="657" y="469"/>
			<point x="680" y="469" type="curve" smooth="yes"/>
			<point x="702" y="469"/>
			<point x="719" y="487"/>
			<point x="719" y="509" type="curve" smooth="yes"/>
			<point x="719" y="532"/>
			<point x="702" y="549"/>
			<point x="680" y="549" type="curve" smooth="yes"/>
			<point x="657" y="549"/>
			<point x="640" y="532"/>
			<point x="640" y="509" type="curve"/>
		</contour>
		<contour>
			<point x="679" y="719" type="move" smooth="yes"/>
			<point x="656" y="719"/>
			<point x="640" y="702"/>
			<point x="640" y="680" type="curve" smooth="yes"/>
			<point x="640" y="657"/>
			<point x="657" y="640"/>
			<point x="680" y="640" type="curve" smooth="yes"/>
			<point x="702" y="640"/>
			<point x="718" y="657"/>
			<point x="718" y="680" type="curve" smooth="yes"/>
			<point x="718" y="702"/>
			<point x="702" y="719"/>
			<point x="680" y="719" type="curve"/>
		</contour>
	</outline>
</glyph>
<glyph name="F" format="2">
	<advance width="680"/>
	<unicode hex="0046"/>
	<outline>
		<contour>
			<point x="680" y="0" type="move"/>
			<point x="680" y="680" type="line"/>
			<point x="0" y="680" type="line"/>
		</contour>
		<contour>
			<point x="170" y="0" type="move"/>
			<point x="170" y="170" type="line"/>
			<point x="0" y="170" type="line"/>
		</contour>
		<contour>
			<point x="340" y="0" type="move"/>
			<point x="340" y="340" type="line"/>
			<point x="0" y="340" type="line"/>
		</contour>
		<contour>
			<point x="510" y="0" type="move"/>
			<point x="510" y="510" type="line"/>
			<point x="0" y="510" type="line"/>
		</contour>
	</outline>
</glyph>
<glyph name="H" format="2">
	<advance width="680"/>
	<unicode hex="0048"/>
	<outline>
		<contour>
			<point x="340" y="680" type="move"/>
			<point x="0" y="340" type="line"/>
			<point x="340" y="0" type="line"/>
			<point x="680" y="340" type="line"/>
			<point x="341" y="679" type="line"/>
		</contour>
	</outline>
</glyph>
<glyph name="I" format="2">
	<advance width="680"/>
	<unicode hex="0049"/>
	<outline>
		<contour>
			<point x="340" y="0" type="move"/>
			<point x="680" y="340" type="line"/>
			<point x="340" y="680" type="line"/>
		</contour>
		<contour>
			<point x="0" y="510" type="move"/>
			<point x="170" y="340" type="line"/>
			<point x="0" y="170" type="line"/>
		</contour>
		<contour>
			<point x="0" y="0" type="move"/>
			<point x="340" y="340" type="line"/>
			<point x="0" y="680" type="line"/>
		</contour>
		<contour>
			<point x="170" y="0" type="move"/>
			<point x="510" y="340" type="line"/>
			<point x="170" y="680" type="line"/>
		</contour>
		<contour>
			<point x="510" y="0" type="move"/>
			<point x="680" y="170" type="line"/>
		</contour>
		<contour>
			<point x="680" y="510" type="move"/>
			<point x="510" y="680" type="line"/>
		</contour>
	</outline>
</glyph>
<glyph name="J" format="2">
	<advance width="680"/>
	<unicode hex="004A"/>
	<outline>
		<contour>
			<point x="340" y="680" type="move"/>
			<point x="0" y="340" type="line"/>
			<point x="340" y="0" type="line"/>
			<point x="680" y="340" type="line"/>
			<point x="341" y="679" type="line"/>
		</contour>
		<contour>
			<point x="170" y="0" type="move"/>
			<point x="0" y="170" type="line"/>
		</contour>
		<contour>
			<point x="510" y="0" type="move"/>
			<point x="680" y="170" type="line"/>
		</contour>
		<contour>
			<point x="0" y="510" type="move"/>
			<point x="170" y="680" type="line"/>
		</contour>
		<contour>
			<point x="341" y="509" type="move"/>
			<point x="510" y="340" type="line"/>
			<point x="340" y="170" type="line"/>
			<point x="170" y="340" type="line"/>
			<point x="340" y="510" type="line"/>
		</contour>
		<contour>
			<point x="680" y="510" type="move"/>
			<point x="510" y="680" type="line"/>
		</contour>
	</outline>
</glyph>
<glyph name="K" format="2">
	<advance width="680"/>
	<unicode hex="004B"/>
	<outline>
		<contour>
			<point x="680" y="0" type="move"/>
			<point x="510" y="0"/>
			<point x="340" y="129"/>
			<point x="340" y="340" type="curve" smooth="yes"/>
			<point x="340" y="551"/>
			<point x="510" y="680"/>
			<point x="680" y="680" type="curve"/>
		</contour>
		<contour>
			<point x="0" y="0" type="move"/>
			<point x="170" y="0"/>
			<point x="340" y="129"/>
			<point x="340" y="340" type="curve" smooth="yes"/>
			<point x="340" y="551"/>
			<point x="170" y="680"/>
			<point x="0" y="680" type="curve"/>
		</contour>
	</outline>
</glyph>
<glyph name="L" format="2">
	<advance width="680"/>
	<unicode hex="004C"/>
	<outline>
		<contour>
			<point x="339" y="680" type="move"/>
			<point x="170" y="680"/>
			<point x="0" y="551"/>
			<point x="0" y="340" type="curve" smooth="yes"/>
			<point x="0" y="129"/>
			<point x="170" y="0"/>
			<point x="340" y="0" type="curve" smooth="yes"/>
			<point x="510" y="0"/>
			<point x="680" y="129"/>
			<point x="680" y="340" type="curve" smooth="yes"/>
			<point x="680" y="551"/>
			<point x="510" y="680"/>
			<point x="341" y="680" type="curve"/>
		</contour>
	</outline>
</glyph>
<glyph name="N" format="2">
	<advance width="680"/>
	<unicode hex="004E"/>
	<outline>
		<contour>
			<point x="680" y="0" type="move"/>
			<point x="680" y="170"/>
			<point x="551" y="340"/>
			<point x="340" y="340" type="curve" smooth="yes"/>
			<point x="129" y="340"/>
			<point x="0" y="170"/>
			<point x="0" y="0" type="curve"/>
			<point x="170" y="0"/>
			<point x="340" y="129"/>
			<point x="340" y="340" type="curve" smooth="yes"/>
			<point x="340" y="551"/>
			<point x="170" y="680"/>
			<point x="0" y="680" type="curve"/>
		</contour>
	</outline>
</glyph>
<glyph name="O" format="2">
	<advance width="680"/>
	<unicode hex="004F"/>
	<outline>
		<contour>
			<point x="680" y="0" type="move"/>
			<point x="510" y="0"/>
			<point x="340" y="129"/>
			<point x="340" y="340" type="curve" smooth="yes"/>
			<point x="340" y="551"/>
			<point x="510" y="680"/>
			<point x="680" y="680" type="curve"/>
		</contour>
		<contour>
			<point x="0" y="510" type="move"/>
			<point x="84" y="510"/>
			<point x="173" y="447"/>
			<point x="173" y="340" type="curve" smooth="yes"/>
			<point x="173" y="233"/>
			<point x="84" y="170"/>
			<point x="0" y="170" type="curve"/>
		</contour>
		<contour>
			<point x="0" y="0" type="move"/>
			<point x="170" y="0"/>
			<point x="340" y="129"/>
			<point x="340" y="340" type="curve" smooth="yes"/>
			<point x="340" y="551"/>
			<point x="170" y="680"/>
			<point x="0" y="680" type="curve"/>
		</contour>
		<contour>
			<point x="680" y="510" type="move"/>
			<point x="596" y="510"/>
			<point x="507" y="447"/>
			<point x="507" y="340" type="curve" smooth="yes"/>
			<point x="507" y="233"/>
			<point x="596" y="170"/>
			<point x="680" y="170" type="curve"/>
		</contour>
	</outline>
</glyph>
<glyph name="P" format="2">
	<advance width="680"/>
	<unicode hex="0050"/>
	<outline>
		<contour>
			<point x="340" y="0" type="move"/>
			<point x="510" y="0"/>
			<point x="680" y="129"/>
			<point x="680" y="340" type="curve" smooth="yes"/>
			<point x="680" y="551"/>
			<point x="510" y="680"/>
			<point x="340" y="680" type="curve"/>
		</contour>
		<contour>
			<point x="0" y="510" type="move"/>
			<point x="84" y="510"/>
			<point x="173" y="447"/>
			<point x="173" y="340" type="curve" smooth="yes"/>
			<point x="173" y="233"/>
			<point x="84" y="170"/>
			<point x="0" y="170" type="curve"/>
		</contour>
		<contour>
			<point x="0" y="0" type="move"/>
			<point x="170" y="0"/>
			<point x="340" y="129"/>
			<point x="340" y="340" type="curve" smooth="yes"/>
			<point x="340" y="551"/>
			<point x="170" y="680"/>
			<point x="0" y="680" type="curve"/>
		</contour>
		<contour>
			<point x="340" y="510" type="move"/>
			<point x="424" y="510"/>
			<point x="513" y="447"/>
			<point x="513" y="340" type="curve" smooth="yes"/>
			<point x="513" y="233"/>
			<point x="424" y="170"/>
			<point x="340" y="170" type="curve"/>
		</contour>
	</outline>
</glyph>
<glyph name="Q" format="2">
	<advance width="680"/>
	<unicode hex="0051"/>
	<outline>
		<contour>
			<point x="339" y="680" type="move"/>
			<point x="170" y="680"/>
			<point x="0" y="551"/>
			<point x="0" y="340" type="curve" smooth="yes"/>
			<point x="0" y="129"/>
			<point x="170" y="0"/>
			<point x="340" y="0" type="curve" smooth="yes"/>
			<point x="510" y="0"/>
			<point x="680" y="129"/>
			<point x="680" y="340" type="curve" smooth="yes"/>
			<point x="680" y="551"/>
			<point x="510" y="680"/>
			<point x="341" y="680" type="curve"/>
		</contour>
		<contour>
			<point x="341" y="510" type="move"/>
			<point x="424" y="510"/>
			<point x="513" y="447"/>
			<point x="513" y="340" type="curve" smooth="yes"/>
			<point x="513" y="233"/>
			<point x="424" y="170"/>
			<point x="340" y="170" type="curve" smooth="yes"/>
			<point x="256" y="170"/>
			<point x="167" y="233"/>
			<point x="167" y="340" type="curve" smooth="yes"/>
			<point x="167" y="447"/>
			<point x="256" y="510"/>
			<point x="339" y="510" type="curve"/>
		</contour>
	</outline>
</glyph>
<glyph name="R" format="2">
	<advance width="680"/>
	<unicode hex="0052"/>
	<outline>
		<contour>
			<point x="680" y="0" type="move"/>
			<point x="680" y="170"/>
			<point x="551" y="340"/>
			<point x="340" y="340" type="curve"/>
			<point x="340" y="551"/>
			<point x="170" y="680"/>
			<point x="0" y="680" type="curve"/>
		</contour>
		<contour>
			<point x="173" y="0" type="move" smooth="yes"/>
			<point x="173" y="107"/>
			<point x="84" y="170"/>
			<point x="0" y="170" type="curve"/>
		</contour>
		<contour>
			<point x="510" y="0" type="move"/>
			<point x="510" y="84"/>
			<point x="447" y="173"/>
			<point x="340" y="173" type="curve" smooth="yes"/>
			<point x="233" y="173"/>
			<point x="173" y="256"/>
			<point x="173" y="340" type="curve" smooth="yes"/>
			<point x="173" y="447"/>
			<point x="84" y="510"/>
			<point x="0" y="510" type="curve"/>
		</contour>
	</outline>
</glyph>
<glyph name="S" format="2">
	<advance width="680"/>
	<unicode hex="0053"/>
	<outline>
		<contour>
			<point x="0" y="0" type="move"/>
			<point x="680" y="340" type="line"/>
			<point x="0" y="680" type="line"/>
		</contour>
	</outline>
</glyph>
<glyph name="T" format="2">
	<advance width="680"/>
	<unicode hex="0054"/>
	<outline>
		<contour>
			<point x="0" y="0" type="move"/>
			<point x="170" y="0"/>
			<point x="680" y="2"/>
			<point x="680" y="340" type="curve" smooth="yes"/>
			<point x="680" y="678"/>
			<point x="170" y="680"/>
			<point x="0" y="680" type="curve"/>
		</contour>
	</outline>
</glyph>
<glyph name="U" format="2">
	<advance width="680"/>
	<unicode hex="0055"/>
	<outline>
		<contour>
			<point x="680" y="0" type="move"/>
			<point x="680" y="680" type="line"/>
		</contour>
		<contour>
			<point x="170" y="0" type="move"/>
			<point x="170" y="680" type="line"/>
		</contour>
		<contour>
			<point x="340" y="0" type="move"/>
			<point x="340" y="680" type="line"/>
		</contour>
		<contour>
			<point x="510" y="0" type="move"/>
			<point x="510" y="680" type="line"/>
		</contour>
	</outline>
</glyph>
<glyph name="V" format="2">
	<advance width="680"/>
	<unicode hex="0056"/>
	<outline>
		<contour>
			<point x="680" y="0" type="move"/>
			<point x="680" y="680" type="line"/>
		</contour>
		<contour>
			<point x="340" y="0" type="move"/>
			<point x="340" y="680" type="line"/>
		</contour>
	</outline>
</glyph>
<glyph name="W" format="2">
	<advance width="680"/>
	<unicode hex="0057"/>
	<outline>
		<contour>
			<point x="340" y="0" type="move"/>
			<point x="340" y="680" type="line"/>
			<point x="338" y="680" type="line"/>
		</contour>
	</outline>
</glyph>
<glyph name="X" format="2">
	<advance width="680"/>
	<unicode hex="0058"/>
	<outline>
		<contour>
			<point x="680" y="0" type="move" smooth="yes"/>
			<point x="680" y="423"/>
			<point x="330" y="680"/>
			<point x="0" y="680" type="curve" smooth="yes"/>
		</contour>
		<contour>
			<point x="171" y="0" type="move" smooth="yes"/>
			<point x="171" y="107"/>
			<point x="85" y="170"/>
			<point x="1" y="170" type="curve"/>
		</contour>
		<contour>
			<point x="341" y="0" type="move"/>
			<point x="341" y="211"/>
			<point x="166" y="340"/>
			<point x="1" y="340" type="curve" smooth="yes"/>
		</contour>
		<contour>
			<point x="511" y="0" type="move" smooth="yes"/>
			<point x="511" y="318"/>
			<point x="248" y="511"/>
			<point x="0" y="511" type="curve" smooth="yes"/>
		</contour>
	</outline>
</glyph>
<glyph name="Y" format="2">
	<advance width="680"/>
	<unicode hex="0059"/>
	<outline>
		<contour>
			<point x="680" y="0" type="move" smooth="yes"/>
			<point x="680" y="423"/>
			<point x="330" y="680"/>
			<point x="0" y="680" type="curve" smooth="yes"/>
		</contour>
		<contour>
			<point x="340" y="0" type="move" smooth="yes"/>
			<point x="340" y="215"/>
			<point x="170" y="340"/>
			<point x="1" y="340" type="curve"/>
		</contour>
	</outline>
</glyph>
<glyph name="Z" format="2">
	<advance width="680"/>
	<unicode hex="005A"/>
	<outline>
		<contour>
			<point x="340" y="0" type="move" smooth="yes"/>
			<point x="340" y="215"/>
			<point x="170" y="340"/>
			<point x="0" y="340" type="curve"/>
		</contour>
	</outline>
</glyph>
<glyph name="a" format="2">
	<advance width="555"/>
	<unicode hex="0061"/>
	<outline>
		<contour>
			<point x="555" y="0" type="move"/>
			<point x="0" y="555" type="line"/>
		</contour>
	</outline>
</glyph>
<glyph name="b" format="2">
	<advance width="555"/>
	<unicode hex="0062"/>
	<outline>
		<contour>
			<point x="555" y="0" type="move"/>
			<point x="555" y="555" type="line"/>
			<point x="0" y="555" type="line"/>
		</contour>
	</outline>
</glyph>
<glyph name="d" format="2">
	<advance width="555"/>
	<unicode hex="0064"/>
	<outline>
		<contour>
			<point x="555" y="0" type="move"/>
			<point x="555" y="555" type="line"/>
			<point x="0" y="555" type="line"/>
		</contour>
		<contour>
			<point x="277" y="0" type="move"/>
			<point x="277" y="277" type="line"/>
			<point x="0" y="277" type="line"/>
		</contour>
	</outline>
</glyph>
<glyph name="e" format="2">
	<advance width="555"/>
	<unicode hex="0065"/>
	<outline>
		<contour>
			<point x="555" y="0" type="move"/>
			<point x="0" y="555" type="line"/>
		</contour>
		<contour>
			<point x="139" y="0" type="move"/>
			<point x="0" y="139" type="line"/>
		</contour>
		<contour>
			<point x="277" y="0" type="move"/>
			<point x="0" y="277" type="line"/>
		</contour>
		<contour>
			<point x="416" y="0" type="move"/>
			<point x="0" y="416" type="line"/>
		</contour>
		<contour>
			<point x="555" y="139" type="move"/>
			<point x="139" y="555" type="line"/>
		</contour>
		<contour>
			<point x="555" y="277" type="move"/>
			<point x="277" y="555" type="line"/>
		</contour>
		<contour>
			<point x="555" y="416" type="move"/>
			<point x="416" y="555" type="line"/>
		</contour>
	</outline>
</glyph>
<glyph name="f" format="2">
	<advance width="555"/>
	<unicode hex="0066"/>
	<outline>
		<contour>
			<point x="555" y="0" type="move"/>
			<point x="555" y="555" type="line"/>
			<point x="0" y="555" type="line"/>
		</contour>
		<contour>
			<point x="139" y="0" type="move"/>
			<point x="139" y="139" type="line"/>
			<point x="0" y="139" type="line"/>
		</contour>
		<contour>
			<point x="277" y="0" type="move"/>
			<point x="277" y="277" type="line"/>
			<point x="0" y="277" type="line"/>
		</contour>
		<contour>
			<point x="416" y="0" type="move"/>
			<point x="416" y="416" type="line"/>
			<point x="0" y="416" type="line"/>
		</contour>
	</outline>
</glyph>
<glyph name="g" format="2">
	<advance width="555"/>
	<unicode hex="0067"/>
	<outline>
		<contour>
			<point x="277" y="0" type="move"/>
			<point x="555" y="277" type="line"/>
			<point x="277" y="555" type="line"/>
		</contour>
		<contour>
			<point x="0" y="0" type="move"/>
			<point x="277" y="277" type="line"/>
			<point x="0" y="555" type="line"/>
		</contour>
	</outline>
</glyph>
<glyph name="h" format="2">
	<advance width="555"/>
	<unicode hex="0068"/>
	<outline>
		<contour>
			<point x="277" y="555" type="move"/>
			<point x="0" y="277" type="line"/>
			<point x="277" y="0" type="line"/>
			<point x="555" y="277" type="line"/>
			<point x="278" y="554" type="line"/>
		</contour>
	</outline>
</glyph>
<glyph name="i" format="2">
	<advance width="555"/>
	<unicode hex="0069"/>
	<outline>
		<contour>
			<point x="277" y="0" type="move"/>
			<point x="555" y="277" type="line"/>
			<point x="277" y="555" type="line"/>
		</contour>
		<contour>
			<point x="0" y="416" type="move"/>
			<point x="139" y="277" type="line"/>
			<point x="0" y="139" type="line"/>
		</contour>
		<contour>
			<point x="0" y="0" type="move"/>
			<point x="277" y="277" type="line"/>
			<point x="0" y="555" type="line"/>
		</contour>
		<contour>
			<point x="139" y="0" type="move"/>
			<point x="416" y="277" type="line"/>
			<point x="139" y="555" type="line"/>
		</contour>
		<contour>
			<point x="416" y="0" type="move"/>
			<point x="555" y="139" type="line"/>
		</contour>
		<contour>
			<point x="555" y="416" type="move"/>
			<point x="416" y="555" type="line"/>
		</contour>
	</outline>
</glyph>
<glyph name="j" format="2">
	<advance width="555"/>
	<unicode hex="006A"/>
	<outline>
		<contour>
			<point x="277" y="555" type="move"/>
			<point x="0" y="277" type="line"/>
			<point x="277" y="0" type="line"/>
			<point x="555" y="277" type="line"/>
			<point x="278" y="554" type="line"/>
		</contour>
		<contour>
			<point x="139" y="0" type="move"/>
			<point x="0" y="139" type="line"/>
		</contour>
		<contour>
			<point x="416" y="0" type="move"/>
			<point x="555" y="139" type="line"/>
		</contour>
		<contour>
			<point x="0" y="416" type="move"/>
			<point x="139" y="555" type="line"/>
		</contour>
		<contour>
			<point x="278" y="415" type="move"/>
			<point x="416" y="277" type="line"/>
			<point x="277" y="139" type="line"/>
			<point x="139" y="277" type="line"/>
			<point x="277" y="416" type="line"/>
		</contour>
		<contour>
			<point x="555" y="416" type="move"/>
			<point x="416" y="555" type="line"/>
		</contour>
	</outline>
</glyph>
<glyph name="k" format="2">
	<advance width="555"/>
	<unicode hex="006B"/>
	<outline>
		<contour>
			<point x="555" y="0" type="move"/>
			<point x="416" y="0"/>
			<point x="277" y="105"/>
			<point x="277" y="277" type="curve" smooth="yes"/>
			<point x="277" y="450"/>
			<point x="416" y="555"/>
			<point x="555" y="555" type="curve"/>
		</contour>
		<contour>
			<point x="0" y="0" type="move"/>
			<point x="139" y="0"/>
			<point x="277" y="105"/>
			<point x="277" y="277" type="curve" smooth="yes"/>
			<point x="277" y="450"/>
			<point x="139" y="555"/>
			<point x="0" y="555" type="curve"/>
		</contour>
	</outline>
</glyph>
<glyph name="l" format="2">
	<advance width="555"/>
	<unicode hex="006C"/>
	<outline>
		<contour>
			<point x="276" y="555" type="move"/>
			<point x="139" y="555"/>
			<point x="0" y="450"/>
			<point x="0" y="277" type="curve" smooth="yes"/>
			<point x="0" y="105"/>
			<point x="139" y="0"/>
			<point x="277" y="0" type="curve" smooth="yes"/>
			<point x="416" y="0"/>
			<point x="555" y="105"/>
			<point x="555" y="277" type="curve" smooth="yes"/>
			<point x="555" y="450"/>
			<point x="416" y="555"/>
			<point x="278" y="555" type="curve"/>
		</contour>
	</outline>
</glyph>
<glyph name="n" format="2">
	<advance width="555"/>
	<unicode hex="006E"/>
	<outline>
		<contour>
			<point x="555" y="0" type="move"/>
			<point x="555" y="139"/>
			<point x="450" y="277"/>
			<point x="277" y="277" type="curve" smooth="yes"/>
			<point x="105" y="277"/>
			<point x="0" y="139"/>
			<point x="0" y="0" type="curve"/>
			<point x="139" y="0"/>
			<point x="277" y="105"/>
			<point x="277" y="277" type="curve" smooth="yes"/>
			<point x="277" y="450"/>
			<point x="139" y="555"/>
			<point x="0" y="555" type="curve"/>
		</contour>
	</outline>
</glyph>
<glyph name="o" format="2">
	<advance width="555"/>
	<unicode hex="006F"/>
	<outline>
		<contour>
			<point x="555" y="0" type="move"/>
			<point x="416" y="0"/>
			<point x="277" y="105"/>
			<point x="277" y="277" type="curve" smooth="yes"/>
			<point x="277" y="450"/>
			<point x="416" y="555"/>
			<point x="555" y="555" type="curve"/>
		</contour>
		<contour>
			<point x="0" y="416" type="move"/>
			<point x="68" y="416"/>
			<point x="141" y="365"/>
			<point x="141" y="277" type="curve" smooth="yes"/>
			<point x="141" y="190"/>
			<point x="68" y="139"/>
			<point x="0" y="139" type="curve"/>
		</contour>
		<contour>
			<point x="0" y="0" type="move"/>
			<point x="139" y="0"/>
			<point x="277" y="105"/>
			<point x="277" y="277" type="curve" smooth="yes"/>
			<point x="277" y="450"/>
			<point x="139" y="555"/>
			<point x="0" y="555" type="curve"/>
		</contour>
		<contour>
			<point x="555" y="416" type="move"/>
			<point x="487" y="416"/>
			<point x="414" y="365"/>
			<point x="414" y="277" type="curve" smooth="yes"/>
			<point x="414" y="190"/>
			<point x="487" y="139"/>
			<point x="555" y="139" type="curve"/>
		</contour>
	</outline>
</glyph>
<glyph name="p" format="2">
	<advance width="555"/>
	<unicode hex="0070"/>
	<outline>
		<contour>
			<point x="276" y="0" type="move"/>
			<point x="416" y="0"/>
			<point x="555" y="105"/>
			<point x="555" y="276" type="curve" smooth="yes"/>
			<point x="555" y="450"/>
			<point x="416" y="555"/>
			<point x="276" y="555" type="curve"/>
		</contour>
		<contour>
			<point x="0" y="416" type="move"/>
			<point x="68" y="416"/>
			<point x="142" y="365"/>
			<point x="142" y="276" type="curve" smooth="yes"/>
			<point x="142" y="190"/>
			<point x="68" y="139"/>
			<point x="0" y="139" type="curve"/>
		</contour>
		<contour>
			<point x="0" y="0" type="move"/>
			<point x="139" y="0"/>
			<point x="276" y="105"/>
			<point x="276" y="276" type="curve" smooth="yes"/>
			<point x="276" y="450"/>
			<point x="139" y="555"/>
			<point x="0" y="555" type="curve"/>
		</contour>
		<contour>
			<point x="276" y="416" type="move"/>
			<point x="346" y="416"/>
			<point x="418" y="365"/>
			<point x="418" y="276" type="curve" smooth="yes"/>
			<point x="418" y="190"/>
			<point x="346" y="139"/>
			<point x="276" y="139" type="curve"/>
		</contour>
	</outline>
</glyph>
<glyph name="q" format="2">
	<advance width="555"/>
	<unicode hex="0071"/>
	<outline>
		<contour>
			<point x="276" y="555" type="move"/>
			<point x="139" y="555"/>
			<point x="0" y="450"/>
			<point x="0" y="277" type="curve" smooth="yes"/>
			<point x="0" y="105"/>
			<point x="139" y="0"/>
			<point x="277" y="0" type="curve" smooth="yes"/>
			<point x="416" y="0"/>
			<point x="555" y="105"/>
			<point x="555" y="277" type="curve" smooth="yes"/>
			<point x="555" y="450"/>
			<point x="416" y="555"/>
			<point x="278" y="555" type="curve"/>
		</contour>
		<contour>
			<point x="278" y="416" type="move"/>
			<point x="346" y="416"/>
			<point x="418" y="365"/>
			<point x="418" y="277" type="curve" smooth="yes"/>
			<point x="418" y="190"/>
			<point x="346" y="139"/>
			<point x="277" y="139" type="curve" smooth="yes"/>
			<point x="209" y="139"/>
			<point x="137" y="190"/>
			<point x="137" y="277" type="curve" smooth="yes"/>
			<point x="137" y="365"/>
			<point x="209" y="416"/>
			<point x="276" y="416" type="curve"/>
		</contour>
	</outline>
</glyph>
<glyph name="r" format="2">
	<advance width="555"/>
	<unicode hex="0072"/>
	<outline>
		<contour>
			<point x="555" y="0" type="move"/>
			<point x="555" y="139"/>
			<point x="450" y="277"/>
			<point x="277" y="277" type="curve"/>
			<point x="277" y="450"/>
			<point x="139" y="555"/>
			<point x="0" y="555" type="curve"/>
		</contour>
		<contour>
			<point x="141" y="0" type="move" smooth="yes"/>
			<point x="141" y="88"/>
			<point x="68" y="139"/>
			<point x="0" y="139" type="curve"/>
		</contour>
		<contour>
			<point x="416" y="0" type="move"/>
			<point x="416" y="68"/>
			<point x="365" y="141"/>
			<point x="277" y="141" type="curve" smooth="yes"/>
			<point x="190" y="141"/>
			<point x="141" y="209"/>
			<point x="141" y="277" type="curve" smooth="yes"/>
			<point x="141" y="365"/>
			<point x="68" y="416"/>
			<point x="0" y="416" type="curve"/>
		</contour>
	</outline>
</glyph>
<glyph name="s" format="2">
	<advance width="555"/>
	<unicode hex="0073"/>
	<outline>
		<contour>
			<point x="0" y="0" type="move"/>
			<point x="555" y="277" type="line"/>
			<point x="0" y="555" type="line"/>
		</contour>
	</outline>
</glyph>
<glyph name="t" format="2">
	<advance width="555"/>
	<unicode hex="0074"/>
	<outline>
		<contour>
			<point x="0" y="0" type="move"/>
			<point x="139" y="0"/>
			<point x="555" y="2"/>
			<point x="555" y="277" type="curve" smooth="yes"/>
			<point x="555" y="553"/>
			<point x="139" y="555"/>
			<point x="0" y="555" type="curve"/>
		</contour>
	</outline>
</glyph>
<glyph name="u" format="2">
	<advance width="555"/>
	<unicode hex="0075"/>
	<outline>
		<contour>
			<point x="555" y="0" type="move"/>
			<point x="555" y="555" type="line"/>
		</contour>
		<contour>
			<point x="139" y="0" type="move"/>
			<point x="139" y="555" type="line"/>
		</contour>
		<contour>
			<point x="277" y="0" type="move"/>
			<point x="277" y="555" type="line"/>
		</contour>
		<contour>
			<point x="416" y="0" type="move"/>
			<point x="416" y="555" type="line"/>
		</contour>
	</outline>
</glyph>
<glyph name="x" format="2">
	<advance width="555"/>
	<unicode hex="0078"/>
	<outline>
		<contour>
			<point x="555" y="0" type="move" smooth="yes"/>
			<point x="555" y="345"/>
			<point x="269" y="555"/>
			<point x="0" y="555" type="curve" smooth="yes"/>
		</contour>
		<contour>
			<point x="139" y="0" type="move" smooth="yes"/>
			<point x="139" y="88"/>
			<point x="69" y="139"/>
			<point x="1" y="139" type="curve"/>
		</contour>
		<contour>
			<point x="278" y="0" type="move"/>
			<point x="278" y="172"/>
			<point x="136" y="277"/>
			<point x="1" y="277" type="curve" smooth="yes"/>
		</contour>
		<contour>
			<point x="417" y="0" type="move" smooth="yes"/>
			<point x="417" y="259"/>
			<point x="203" y="417"/>
			<point x="0" y="417" type="curve" smooth="yes"/>
		</contour>
	</outline>
</glyph>
<glyph name="y" format="2">
	<advance width="555"/>
	<unicode hex="0079"/>
	<outline>
		<contour>
			<point x="555" y="0" type="move" smooth="yes"/>
			<point x="555" y="344"/>
			<point x="270" y="555"/>
			<point x="0" y="555" type="curve" smooth="yes"/>
		</contour>
		<contour>
			<point x="278" y="0" type="move" smooth="yes"/>
			<point x="278" y="176"/>
			<point x="138" y="278"/>
			<point x="0" y="278" type="curve"/>
		</contour>
	</outline>
</glyph>
<glyph name="z" format="2">
	<advance width="555"/>
	<unicode hex="007A"/>
	<outline>
		<contour>
			<point x="278" y="0" type="move" smooth="yes"/>
			<point x="278" y="176"/>
			<point x="138" y="278"/>
			<point x="0" y="278" type="curve"/>
		</contour>
	</outline>
</glyph>
<glyph name="H.ss01" format="2">
	<advance width="680"/>
	<outline>
		<contour>
			<point x="680" y="680" type="move"/>
			<point x="0" y="0" type="line"/>
		</contour>
		<contour>
			<point x="0" y="680" type="move"/>
			<point x="680" y="0" type="line"/>
		</contour>
	</outline>
</glyph>
<glyph name="J.ss01" format="2">
	<advance width="680"/>
	<outline>
		<contour>
			<point x="680" y="680" type="move"/>
			<point x="0" y="0" type="line"/>
		</contour>
		<contour>
			<point x="514" y="0" type="move"/>
			<point x="340" y="174" type="line"/>
			<point x="166" y="0" type="line"/>
		</contour>
		<contour>
			<point x="0" y="166" type="move"/>
			<point x="174" y="340" type="line"/>
			<point x="0" y="514" type="line"/>
		</contour>
		<contour>
			<point x="0" y="680" type="move"/>
			<point x="680" y="0" type="line"/>
		</contour>
		<contour>
			<point x="166" y="680" type="move"/>
			<point x="340" y="506" type="line"/>
			<point x="514" y="680" type="line"/>
		</contour>
		<contour>
			<point x="680" y="166" type="move"/>
			<point x="506" y="340" type="line"/>
			<point x="680" y="514" type="line"/>
		</contour>
	</outline>
</glyph>
<glyph name=".notdef" format="2">
	<advance width="680"/>
	<outline>
		<contour>
			<point x="535" y="680" type="move"/>
			<point x="145" y="0" type="line"/>
		</contour>
		<contour>
			<point x="145" y="679" type="move"/>
			<point x="145" y="0" type="line"/>
			<point x="535" y="0" type="line"/>
			<point x="535" y="680" type="line"/>
			<point x="145" y="680" type="line"/>
		</contour>
	</outline>
</glyph>
<glyph name="h.ss01" format="2">
	<advance width="555"/>
	<outline>
		<contour>
			<point x="555" y="555" type="move"/>
			<point x="0" y="0" type="line"/>
		</contour>
		<contour>
			<point x="0" y="555" type="move"/>
			<point x="555" y="0" type="line"/>
		</contour>
	</outline>
</glyph>
<glyph name="j.ss01" format="2">
	<advance width="555"/>
	<outline>
		<contour>
			<point x="555" y="555" type="move"/>
			<point x="0" y="0" type="line"/>
		</contour>
		<contour>
			<point x="420" y="0" type="move"/>
			<point x="278" y="142" type="line"/>
			<point x="135" y="0" type="line"/>
		</contour>
		<contour>
			<point x="0" y="135" type="move"/>
			<point x="142" y="278" type="line"/>
			<point x="0" y="420" type="line"/>
		</contour>
		<contour>
			<point x="0" y="555" type="move"/>
			<point x="555" y="0" type="line"/>
		</contour>
		<contour>
			<point x="135" y="555" type="move"/>
			<point x="278" y="413" type="line"/>
			<point x="420" y="555" type="line"/>
		</contour>
		<contour>
			<point x="555" y="135" type="move"/>
			<point x="413" y="278" type="line"/>
			<point x="555" y="420" type="line"/>
		</contour>
	</outline>
</glyph>
